<?xml version="1.0" encoding="utf-8"?>

<svg version="1.1" id="whole-note" xmlns="http://www.w3.org/2000/svg" xmlns:xlink="http://www.w3.org/1999/xlink"
  width="24" height="24" viewBox="320 41 28 28">
  <g class="double-flat">
    <path stroke-width="0.3"
      fill="null"
      stroke="none"
      stroke-dasharray="none"
      font-weight="normal"
      font-style="normal"
      x="94.73808"
      y="110"
      width="18.01824"
      height="1"
      d="M328.50389333333334 60M328.2850133333333 42.735839999999996C328.33973333333336 42.70848,328.39445333333333 42.70848,328.47653333333335 42.70848C328.72277333333335 42.70848,328.94165333333336 42.81792,329.0237333333333 43.0368C329.0510933333333 43.146240000000006,329.0510933333333 43.146240000000006,329.0510933333333 49.521119999999996L329.0510933333333 55.950720000000004L329.07845333333336 55.86864C330.11813333333333 54.99312,331.29461333333336 54.55536,332.33429333333333 54.55536C332.9909333333333 54.55536,333.6202133333333 54.74688,334.14005333333336 55.10256L334.24949333333336 55.18464L334.24949333333336 49.165440000000004L334.24949333333336 43.118880000000004L334.30421333333334 43.00944C334.41365333333334 42.81792,334.6051733333333 42.70848,334.8240533333333 42.70848C335.04293333333334 42.70848,335.26181333333335 42.81792,335.3438933333333 43.0368C335.37125333333336 43.146240000000006,335.37125333333336 43.146240000000006,335.37125333333336 49.521119999999996L335.37125333333336 55.950720000000004L335.4533333333333 55.86864C336.46565333333336 54.99312,337.58741333333336 54.55536,338.62709333333333 54.55536C339.0374933333333 54.55536,339.44789333333335 54.610079999999996,339.85829333333334 54.77424C341.03477333333336 55.18464,341.71877333333333 56.33376,341.71877333333333 57.70176C341.71877333333333 58.41312,341.52725333333336 59.20656,341.1168533333333 60C340.5149333333333 61.0944,339.74885333333333 61.96992,337.58741333333336 63.88512L335.48069333333336 65.8824C335.0702933333333 66.26544,335.04293333333334 66.26544,334.8240533333333 66.26544C334.63253333333336 66.26544,334.52309333333335 66.21072,334.41365333333334 66.10128C334.24949333333336 65.93712,334.24949333333336 66.10128,334.24949333333336 64.32288C334.24949333333336 64.04928,334.24949333333336 63.72096,334.24949333333336 63.2832L334.24949333333336 60.79344L334.1126933333333 60.93024C333.4834133333333 61.7784,332.8541333333333 62.40768,331.2398933333333 63.88512L329.13317333333333 65.8824C328.75013333333334 66.26544,328.6680533333333 66.26544,328.47653333333335 66.26544C328.25765333333334 66.26544,328.0387733333333 66.12864,327.95669333333336 65.90976L327.9293333333333 65.80032L327.9293333333333 54.500640000000004L327.9293333333333 43.146240000000006L327.95669333333336 43.0368C328.0387733333333 42.92736,328.14821333333333 42.7632,328.2850133333333 42.735839999999996M331.5134933333333 56.41584C331.40405333333337 56.36112,331.2398933333333 56.36112,331.1304533333333 56.36112C331.04837333333336 56.36112,330.9936533333333 56.36112,330.93893333333335 56.36112C330.22757333333334 56.47056,329.59829333333334 56.90832,329.1605333333333 57.61968L329.0510933333333 57.8112L329.0510933333333 61.01232L329.0510933333333 64.26816L329.13317333333333 64.15872C331.1304533333333 61.96992,332.44373333333334 59.4528,332.44373333333334 57.78384L332.44373333333334 57.72912C332.44373333333334 56.90832,332.17013333333335 56.55264,331.5134933333333 56.41584M337.83365333333336 56.41584C337.72421333333335 56.36112,337.58741333333336 56.36112,337.47797333333335 56.36112C337.4232533333333 56.36112,337.34117333333336 56.36112,337.3138133333333 56.36112C336.60245333333336 56.47056,335.97317333333336 56.90832,335.53541333333334 57.61968L335.37125333333336 57.8112L335.37125333333336 61.01232L335.37125333333336 64.26816L335.48069333333336 64.15872C337.47797333333335 61.96992,338.76389333333333 59.4528,338.76389333333333 57.78384L338.76389333333333 57.72912C338.76389333333333 56.90832,338.5450133333333 56.55264,337.83365333333336 56.41584">
    </path>
  </g>
</svg>
