<?xml version="1.0" encoding="utf-8"?>

<svg version="1.1" id="sharp" xmlns="http://www.w3.org/2000/svg" xmlns:xlink="http://www.w3.org/1999/xlink"
  width="24" height="24" viewBox="77 96 28 28">
  <g class="sharp">
    <path stroke-width="0.3"
      fill="null" stroke="none"
      stroke-dasharray="none"
      font-weight="normal"
      font-style="normal"
      x="94.73808"
      y="110"
      width="18.01824"
      height="1"
      d="M85.9008 110M91.83792 95.36240000000001C91.92 95.30768,91.94736 95.30768,92.05680000000001 95.30768C92.3304 95.30768,92.52192000000001 95.41712,92.604 95.66336L92.63136 95.74544L92.65872 99.3296L92.65872 102.94112L93.37008 102.7496C93.78048 102.64016,94.08144 102.6128,94.27296 102.6128C94.5192 102.6128,94.62864 102.69488,94.71072000000001 102.91376C94.73808 102.99584,94.73808 103.62512,94.73808 104.30912000000001C94.73808 104.96576,94.73808 105.64976,94.71072000000001 105.67712C94.60128 105.95072,94.5192 105.97808,93.78048 106.1696C92.85024 106.41584,92.65872 106.4432,92.65872 106.4432C92.65872 106.4432,92.65872 107.15456,92.65872 108.2216C92.65872 108.60464,92.65872 109.01504,92.65872 109.4528L92.65872 112.40768L93.37008 112.21616C93.80784 112.10672,94.08144 112.07936,94.27296 112.07936C94.40976 112.07936,94.5192 112.10672,94.60128 112.21616C94.73808 112.38032,94.73808 112.35296,94.73808 113.36528L94.73808 113.77568L94.73808 114.21344C94.73808 115.22576,94.73808 115.19839999999999,94.60128 115.3352C94.49184 115.44463999999999,94.5192 115.44463999999999,93.26064000000001 115.7456C92.98704000000001 115.82768,92.74080000000001 115.90976,92.71344 115.90976L92.65872 115.90976L92.65872 119.54864L92.63136 123.21488L92.604 123.32432C92.52192000000001 123.5432,92.30304000000001 123.65264,92.05680000000001 123.65264C91.89264 123.65264,91.6464 123.5432,91.53696000000001 123.32432L91.5096 123.21488L91.5096 119.7128L91.5096 116.21072L91.48224 116.21072L90.85296000000001 116.37488L89.67648 116.67584C89.37552000000001 116.75792,89.10192 116.81264,89.10192 116.81264C89.0472 116.81264,89.0472 117.00416,89.0472 120.5336L89.0472 124.30928L89.01984 124.39135999999999C88.91040000000001 124.61024,88.69152 124.71968,88.5 124.71968C88.28112 124.71968,88.03488 124.61024,87.92544000000001 124.39135999999999L87.89808000000001 124.30928L87.89808000000001 120.69776C87.89808000000001 117.35984,87.89808000000001 117.1136,87.87072 117.1136C87.87072 117.1136,87.87072 117.1136,87.87072 117.1136C87.56976 117.19568,86.53008 117.46928,86.42064 117.46928C86.1744 117.46928,86.01024000000001 117.30512,85.9008 117.1136C85.9008 117.00416,85.9008 117.00416,85.9008 115.71824L85.9008 114.43232L85.92816 114.32288C86.0376 114.04928,86.0376 114.04928,87.56976 113.66624L87.89808000000001 113.58416L87.89808000000001 110.60192C87.89808000000001 107.83856,87.89808000000001 107.64704,87.87072 107.64704C87.87072 107.64704,87.87072 107.64704,87.87072 107.64704C87.56976 107.72912,86.53008 107.97536,86.42064 107.97536C86.1744 107.97536,86.01024000000001 107.83856,85.9008 107.64704C85.9008 107.5376,85.9008 107.5376,85.9008 106.25168L85.9008 104.96576L85.92816 104.85632C86.0376 104.58272,86.0376 104.58272,87.56976 104.19968L87.89808000000001 104.1176L87.89808000000001 100.47872L87.89808000000001 96.83984L87.92544000000001 96.7304C88.03488 96.53888,88.28112 96.37472,88.5 96.37472C88.58208 96.37472,88.63680000000001 96.42944,88.71888 96.4568C88.82832 96.48416,88.93776 96.62096,89.01984 96.7304L89.0472 96.83984L89.0472 100.34192L89.0472 103.81664L89.21136 103.81664C89.26608 103.78928,89.75856 103.67984,90.25104 103.5704L91.31808000000001 103.24208L91.5096 103.21472L91.5096 99.49376L91.5096 95.74544L91.53696000000001 95.66336C91.61904 95.55392,91.70112 95.41712,91.83792 95.36240000000001M91.5096 109.75376C91.5096 108.0848,91.5096 106.74416,91.5096 106.74416L91.5096 106.74416C91.48224 106.74416,91.20864 106.82624,90.88032 106.90832L89.67648 107.20928C89.37552000000001 107.29136,89.10192 107.34608,89.10192 107.34608C89.0472 107.34608,89.0472 107.51024,89.0472 110.32832L89.0472 113.33792L89.21136 113.2832C89.26608 113.25584,89.75856 113.1464,90.25104 113.03696L91.31808000000001 112.76336L91.5096 112.68128L91.5096 109.75376">
    </path>
  </g>
</svg>
