<?xml version="1.0" encoding="utf-8"?>

<svg version="1.1" id="whole-note" xmlns="http://www.w3.org/2000/svg" xmlns:xlink="http://www.w3.org/1999/xlink"
  width="24" height="24" viewBox="198 51 28 28">
  <g class="double-sharp">
    <path stroke-width="0.3"
      fill="null"
      stroke="none"
      stroke-dasharray="none"
      font-weight="normal"
      font-style="normal"
      x="94.73808"
      y="110"
      width="18.01824"
      height="1"
      d="M206.31314666666665 65M206.31314666666665 61.60736L206.31314666666665 59.88368L207.98210666666665 59.88368L209.65106666666665 59.88368L209.65106666666665 61.22432L209.65106666666665 62.51024L210.49922666666666 63.33104L211.32002666666665 64.1792L212.14082666666664 63.33104L212.96162666666666 62.51024L212.96162666666666 61.22432L212.96162666666666 59.88368L214.68530666666666 59.88368L216.35426666666666 59.88368L216.35426666666666 61.60736L216.35426666666666 63.33104L215.09570666666664 63.33104L213.80978666666664 63.33104L212.96162666666666 64.1792L212.14082666666664 65L212.96162666666666 65.84816L213.80978666666664 66.69632L215.09570666666664 66.69632L216.35426666666666 66.69632L216.35426666666666 68.39264L216.35426666666666 70.14368L214.68530666666666 70.14368L212.96162666666666 70.14368L212.96162666666666 68.8304L212.96162666666666 67.54448L212.14082666666664 66.69632L211.32002666666665 65.84816L210.49922666666666 66.69632L209.65106666666665 67.54448L209.65106666666665 68.8304L209.65106666666665 70.14368L207.98210666666665 70.14368L206.31314666666665 70.14368L206.31314666666665 68.39264L206.31314666666665 66.69632L207.57170666666664 66.69632L208.83026666666666 66.69632L209.67842666666667 65.84816L210.49922666666666 65L209.67842666666667 64.1792L208.83026666666666 63.33104L207.57170666666664 63.33104L206.31314666666665 63.33104L206.31314666666665 61.60736">
    </path>
  </g>
</svg>
