<?xml version="1.0" encoding="utf-8"?>

<svg version="1.1" id="natural" xmlns="http://www.w3.org/2000/svg" xmlns:xlink="http://www.w3.org/1999/xlink"
  width="24" height="24" viewBox="552 36 28 28">
  <g className="natural">
    <path stroke-width="0.3"
      fill="black"
      x="94"
      y="110"
      stroke="black"
      stroke-dasharray="none"
      font-weight="normal"
      font-style="normal"
      width="18.01824"
      height="1"
      d="M560.8689066666666 50M561.1425066666666 37.4144C561.2245866666666 37.35968,561.2519466666666 37.35968,561.4161066666666 37.35968C561.6349866666666 37.35968,561.8265066666665 37.469120000000004,561.9359466666666 37.715360000000004L561.9633066666665 37.79744L561.9633066666665 41.08064C561.9633066666665 42.913759999999996,561.9633066666665 44.3912,561.9633066666665 44.3912C561.9633066666665 44.3912,563.0577066666666 44.1176,564.3436266666666 43.78928C566.2314666666666 43.32416,566.6965866666666 43.18736,566.8881066666665 43.18736C566.9975466666666 43.18736,567.0249066666665 43.21472,567.0796266666666 43.24208C567.1890666666666 43.2968,567.2985066666666 43.40624,567.3805866666665 43.51568L567.4079466666666 43.62512L567.4079466666666 52.90016L567.4079466666666 62.25728L567.3805866666665 62.33936C567.2711466666666 62.55824,567.0249066666665 62.66768,566.8607466666666 62.66768C566.6145066666666 62.66768,566.3956266666665 62.55824,566.2861866666666 62.33936L566.2588266666666 62.25728L566.2588266666666 58.86464C566.2588266666666 56.78528,566.2588266666666 55.499359999999996,566.2588266666666 55.499359999999996C566.2314666666666 55.499359999999996,565.1644266666666 55.745599999999996,563.8785066666666 56.10128C562.0180266666666 56.5664,561.5255466666666 56.7032,561.3340266666665 56.7032C561.2245866666666 56.7032,561.2245866666666 56.67584,561.1425066666666 56.62112C561.0330666666666 56.59376,560.9236266666666 56.48432,560.8689066666666 56.37488L560.8689066666666 56.2928L560.8689066666666 47.04512L560.8689066666666 37.79744L560.8689066666666 37.715360000000004C560.9236266666666 37.60592,561.0330666666666 37.469120000000004,561.1425066666666 37.4144M566.2588266666666 49.39808C566.2588266666666 48.87824,566.2588266666666 48.41312,566.2588266666666 48.0848C566.2588266666666 46.90832,566.2588266666666 46.82624,566.2314666666666 46.82624L566.2314666666666 46.82624C566.2314666666666 46.82624,565.2465066666666 47.09984,564.0973866666666 47.34608L561.9633066666665 47.89328L561.9633066666665 50.49248C561.9633066666665 51.88784,561.9633066666665 53.06432,561.9633066666665 53.06432L564.1247466666666 52.54448L566.2588266666666 51.99728L566.2588266666666 49.39808">
    </path>
  </g>
</svg>
