<?xml version="1.0" encoding="utf-8"?>

<svg version="1.1" id="flat" xmlns="http://www.w3.org/2000/svg" xmlns:xlink="http://www.w3.org/1999/xlink"
  width="24" height="24" viewBox="668 81 28 28">
  <g class="flat">
    <path stroke-width="0.3"
      fill="null"
      stroke="none"
      stroke-dasharray="none"
      font-weight="normal"
      font-style="normal"
      x="686.4249333333333"
      y="100"
      width="18.01824"
      height="1"
      d="M679.5575733333334 100M679.3386933333334 82.73584C679.3934133333333 82.70848000000001,679.4481333333334 82.70848000000001,679.5302133333333 82.70848000000001C679.7764533333334 82.70848000000001,679.9953333333334 82.81792,680.0774133333334 83.0368C680.1047733333334 83.14624,680.1047733333334 83.14624,680.1047733333334 89.52112L680.1047733333334 95.95072L680.1321333333334 95.86864C681.1718133333334 94.99312,682.2662133333333 94.55536000000001,683.3058933333334 94.55536000000001C683.7162933333334 94.55536000000001,684.1266933333334 94.61008,684.5370933333334 94.77424C685.7682933333334 95.18464,686.4249333333333 96.33376,686.4249333333333 97.70176000000001C686.4249333333333 98.41312,686.2060533333333 99.20656,685.7956533333333 100C685.1937333333334 101.0944,684.4276533333334 101.96992,682.2935733333334 103.88512L680.1868533333334 105.8824C679.8038133333333 106.26544,679.7217333333334 106.26544,679.5575733333334 106.26544C679.3113333333334 106.26544,679.0924533333334 106.12864,679.0103733333334 105.90976L678.9830133333334 105.80032L678.9830133333334 94.50064L678.9830133333334 83.14624L679.0103733333334 83.0368C679.0924533333334 82.92736,679.2018933333334 82.7632,679.3386933333334 82.73584M682.5671733333334 96.41584C682.4577333333334 96.36112,682.2935733333334 96.36112,682.1841333333334 96.36112C682.1020533333334 96.36112,682.0473333333334 96.36112,681.9926133333333 96.36112C681.2812533333333 96.47056,680.6519733333333 96.90832,680.2142133333334 97.61968L680.1047733333334 97.8112L680.1047733333334 101.01232L680.1047733333334 104.26816L680.1868533333334 104.15872C682.1841333333334 101.96992,683.4974133333334 99.4528,683.4974133333334 97.78384L683.4974133333334 97.72912C683.4974133333334 96.90832,683.2238133333334 96.55264,682.5671733333334 96.41584">
    </path>
  </g>
</svg>
