<?xml version="1.0" encoding="utf-8"?>

<svg version="1.1" id="quarter-note" xmlns="http://www.w3.org/2000/svg" xmlns:xlink="http://www.w3.org/1999/xlink"
  width="24" height="24" viewBox="675 39 42 42">
  <g className="stavenote">
    <g className="note">
      <g className="stem">
        <path stroke-width="1.5"
          fill="black"
          stroke="black"
          stroke-dasharray="none"
          font-weight="normal"
          font-style="normal"
          x="81.90079999999999"
          y="100"
          width="23.381520000000002"
          height="1"
          d="M701.9486868965517 75L701.9486868965517 40">
        </path>
      </g>
      <g className="notehead">
        <path stroke-width="0.3"
          fill="black"
          stroke="black"
          stroke-dasharray="none"
          font-weight="normal"
          font-style="normal"
          x="81.90079999999999"
          y="100"
          width="23.381520000000002"
          height="1"
          d="M690.6804468965518 75M698.0374068965517 69.77712C698.1497268965518 69.77712,698.3182068965517 69.77712,698.3462868965518 69.77712C698.3462868965518 69.77712,698.3743668965518 69.77712,698.3743668965518 69.77712C698.3743668965518 69.77712,698.5428468965517 69.77712,698.6832468965517 69.77712C701.2104468965517 69.91752,702.6986868965517 71.57424,702.6986868965517 73.65216C702.6986868965517 74.66304,702.3617268965518 75.81432,701.5193268965518 76.90944C699.9187668965518 79.0716,697.3073268965518 80.25096,695.0328468965517 80.25096C693.2638068965517 80.25096,691.7474868965518 79.54896,691.0174068965517 78.11688C690.7927668965517 77.55528,690.6804468965518 77.02176,690.6804468965518 76.43208C690.6804468965518 73.37136,694.1062068965517 69.97368,698.0374068965517 69.77712">
        </path>
      </g>
    </g>
  </g>
</svg>
