<?xml version="1.0" encoding="utf-8"?>

<svg version="1.1" id="whole-note" xmlns="http://www.w3.org/2000/svg" xmlns:xlink="http://www.w3.org/1999/xlink"
  width="24" height="24" viewBox="250 59 42 42">
  <g class="stavenote">
    <g class="note">
      <g class="notehead">
        <path stroke-width="0.3"
          fill="black"
          stroke="black"
          stroke-dasharray="none"
          font-weight="normal"
          font-style="normal"
          x="81.90079999999999"
          y="100"
          width="23.381520000000002"
          height="1"
          d="M263.65520827586204 95M271.34912827586203 89.83328C271.658008275862 89.77712,271.96688827586206 89.77712,272.27576827586205 89.77712C276.71240827586206 89.77712,280.418968275862 91.74272,280.95248827586204 94.38224C280.980568275862 94.63496,281.03672827586206 94.8596,281.03672827586206 95.02808C281.03672827586206 97.92032,277.217848275862 100.25096,272.30384827586204 100.25096C267.38984827586205 100.25096,263.65520827586204 97.86416,263.65520827586204 95.02808C263.65520827586204 94.69112,263.683288275862 94.35416,263.79560827586204 93.98912C264.46952827586205 91.7708,267.614488275862 90.05792,271.34912827586203 89.83328M271.770328275862 90.47912C271.629928275862 90.45104,271.43336827586205 90.45104,271.29296827586205 90.45104C269.52392827586203 90.45104,268.456888275862 91.96736,268.456888275862 93.84872C268.456888275862 94.8596,268.76576827586206 95.95472,269.411608275862 97.04984C270.47864827586204 98.73464,272.02304827586204 99.57704,273.342808275862 99.57704C274.466008275862 99.57704,275.44880827586206 98.98736,275.89808827586205 97.75184C276.094648275862 97.2464,276.17888827586205 96.74096,276.17888827586205 96.20744C276.17888827586205 93.68024,274.24136827586204 90.87224,271.770328275862 90.47912">
        </path>
      </g>
    </g>
  </g>
</svg>
