<?xml version="1.0" encoding="utf-8"?>

<svg version="1.1" id="half-note" xmlns="http://www.w3.org/2000/svg" xmlns:xlink="http://www.w3.org/1999/xlink"
  width="24" height="24" viewBox="527 49 42 42">
  <g class="stavenote">
    <g class="note">
      <g class="stem">
        <path stroke-width="1.5"
          fill="black"
          stroke="black"
          stroke-dasharray="none"
          font-weight="normal"
          font-style="normal"
          x="81.90079999999999"
          y="100"
          width="23.381520000000002"
          height="1"
          d="M549.3825406896552 85L549.3825406896552 50">
        </path>
      </g>
      <g class="notehead">
        <path stroke-width="0.3"
          fill="black"
          stroke="black"
          stroke-dasharray="none"
          font-weight="normal"
          font-style="normal" x="81.90079999999999"
          y="100"
          width="23.381520000000002"
          height="1"
          d="M538.1143006896552 85M545.4712606896552 79.77712C545.5835806896553 79.77712,545.7520606896552 79.77712,545.7801406896552 79.77712C545.7801406896552 79.77712,545.8082206896553 79.77712,545.8082206896553 79.77712C545.8082206896553 79.77712,545.9767006896552 79.77712,546.1171006896552 79.77712C548.6443006896552 79.91752,550.1325406896552 81.57424,550.1325406896552 83.65216C550.1325406896552 84.66304,549.7955806896553 85.81432,548.9531806896553 86.90944C547.3526206896553 89.0716,544.7411806896553 90.25096,542.4667006896552 90.25096C540.6976606896552 90.25096,539.1813406896553 89.54896,538.4512606896552 88.11688C538.2266206896552 87.55528,538.1143006896552 87.02176,538.1143006896552 86.43208C538.1143006896552 83.37136,541.5400606896552 79.97368,545.4712606896552 79.77712M548.3915806896553 81.32152C548.2792606896552 81.26536,548.1388606896552 81.23728,547.9984606896552 81.23728C547.1279806896553 81.23728,545.6678206896553 81.7708,544.2638206896553 82.72552C541.6523806896553 84.35416,539.5183006896552 86.74096,539.4340606896552 88.11688C539.4340606896552 88.11688,539.4340606896552 88.14496,539.4340606896552 88.14496C539.4340606896552 88.62232,539.7429406896553 88.81888000000001,540.2764606896552 88.81888000000001C541.4277406896553 88.81888000000001,543.5618206896553 87.83608,545.5274206896553 86.2636C547.5491806896553 84.66304,548.8408606896552 82.86592,548.8408606896552 81.93928C548.8408606896552 81.6304,548.7004606896552 81.37768,548.3915806896553 81.32152">
        </path>
      </g>
    </g>
    </g>
</svg>
