<?xml version="1.0" encoding="utf-8"?>

<svg version="1.1" id="eighth-note" xmlns="http://www.w3.org/2000/svg" xmlns:xlink="http://www.w3.org/1999/xlink"
  width="24" height="24" viewBox="738 44 42 42">
  <g class="note">
    <g class="stem">
      <path stroke-width="1.5"
        fill="black"
        stroke="black"
        stroke-dasharray="none"
        font-weight="normal"
        font-style="normal"
        x="81.90079999999999"
        y="100"
        width="23.381520000000002"
        height="1"
        d="M758.8101489655173 80L758.8101489655173 45">
      </path>
    </g>
    <g class="notehead">
      <path stroke-width="0.3"
        fill="black"
        stroke="black"
        stroke-dasharray="none"
        font-weight="normal"
        font-style="normal"
        x="81.90079999999999"
        y="100"
        width="23.381520000000002"
        height="1"
        d="M747.5419089655173 80M754.8988689655173 74.77712C755.0111889655174 74.77712,755.1796689655173 74.77712,755.2077489655173 74.77712C755.2077489655173 74.77712,755.2358289655174 74.77712,755.2358289655174 74.77712C755.2358289655174 74.77712,755.4043089655173 74.77712,755.5447089655173 74.77712C758.0719089655173 74.91752,759.5601489655173 76.57424,759.5601489655173 78.65216C759.5601489655173 79.66304,759.2231889655174 80.81432,758.3807889655174 81.90944C756.7802289655174 84.0716,754.1687889655174 85.25096,751.8943089655173 85.25096C750.1252689655173 85.25096,748.6089489655174 84.54896,747.8788689655173 83.11688C747.6542289655173 82.55528,747.5419089655173 82.02176,747.5419089655173 81.43208C747.5419089655173 78.37136,750.9676689655173 74.97368,754.8988689655173 74.77712">
      </path>
    </g>
    <g class="flag">
      <path stroke-width="0.3"
        fill="black"
        stroke="black"
        stroke-dasharray="none"
        fontWeight="normal"
        font-style="normal"
        x="81.90079999999999"
        y="100"
        width="23.381520000000002"
        height="1"
        d="M758.8101489655173 43M758.1362289655174 47.52088L758.1362289655174 43.1404L758.2485489655173 43.1404C758.5574289655174 43.1404,758.7539889655174 43.33696,758.8101489655173 43.67392C759.3998289655174 46.48192,761.1688689655173 49.54264,763.6118289655174 51.8452C766.3355889655173 54.40048,767.7115089655173 57.91048,767.7115089655173 61.5328C767.7115089655173 64.95856,766.5040689655174 68.52472,764.0611089655173 71.47312C763.6399089655173 72.03472,763.6118289655174 72.03472,763.3310289655174 72.03472C762.9940689655173 72.03472,762.7694289655174 71.782,762.7694289655174 71.44504C762.7694289655174 71.19232,762.7975089655173 71.13616,763.0783089655173 70.82728C765.2123889655173 68.24392,766.2794289655174 65.12704,766.2794289655174 62.15056C766.2794289655174 59.51104,765.4370289655174 56.98384,763.6960689655174 55.0744C762.6290289655174 53.89504,760.6634289655174 52.77184,758.1643089655173 51.90136C758.1643089655173 51.87328,758.1362289655174 51.0028,758.1362289655174 47.52088">
      </path>
    </g>
  </g>
</svg>
