<?xml version="1.0" encoding="utf-8"?>

<svg version="1.1" id="quarter-rest" xmlns="http://www.w3.org/2000/svg" xmlns:xlink="http://www.w3.org/1999/xlink"
  width="24" height="24" viewBox="576 60 28 28">
  <g class="stavenote">
    <g class="note">
      <g class="notehead">
        <path stroke-width="0.3"
          fill="null"
          stroke="none"
          stroke-dasharray="none"
          font-weight="normal"
          font-style="normal"
          x="81.90079999999999"
          y="100"
          width="18.01824"
          height="1"
          d="M586.605056 75M587.9809759999999 60.8196C588.009056 60.8196,588.037136 60.79152,588.093296 60.79152C588.233696 60.79152,588.346016 60.87576,588.570656 61.07232C588.654896 61.18464,588.795296 61.29696,588.879536 61.3812L589.300736 61.71816L589.721936 62.11128L590.030816 62.39208L590.3677759999999 62.70096L591.715616 63.88032L593.765456 65.7336C594.804416 66.63216,594.804416 66.63216,594.804416 66.82872L594.804416 66.85679999999999L594.804416 67.02528L594.551696 67.4184C593.175776 69.46824,592.473776 71.82696,592.473776 73.98912C592.473776 76.23552,593.203856 78.34152,594.692096 79.7736C594.888656 80.02632,595.000976 80.08248,595.000976 80.16672C595.029056 80.25096,595.029056 80.27904,595.029056 80.36328C595.029056 80.58792,594.860576 80.78448,594.607856 80.78448C594.551696 80.78448,594.495536 80.78448,594.467456 80.78448C594.186656 80.67216,593.877776 80.64408,593.540816 80.64408C592.866896 80.64408,592.136816 80.84064000000001,591.547136 81.23376C590.423936 81.99192,589.8061759999999 83.19936,589.8061759999999 84.5472C589.8061759999999 85.78272,590.3677759999999 87.15864,591.434816 88.22568C591.715616 88.50648,591.799856 88.67496,591.799856 88.81536C591.799856 88.92768,591.743696 89.01192,591.687536 89.09616C591.547136 89.1804,591.490976 89.26464,591.406736 89.26464C591.266336 89.26464,591.097856 89.12424,590.873216 88.98384C588.430256 87.01824,586.942016 84.88416,586.605056 82.97472C586.605056 82.80624,586.605056 82.5816,586.605056 82.3008C586.605056 82.07616,586.605056 81.79536,586.633136 81.68304C587.054336 79.97015999999999,588.654896 78.9312,590.760896 78.9312C591.294416 78.9312,591.912176 78.98736,592.473776 79.15584C592.558016 79.15584,592.642256 79.18392,592.642256 79.18392C592.642256 79.18392,592.642256 79.18392,592.642256 79.18392L592.642256 79.18392C592.642256 79.15584,592.473776 78.98736,592.249136 78.81888000000001L591.013616 77.72376L589.300736 76.15128C587.194736 74.32608,587.082416 74.18568,587.082416 74.04528C587.082416 73.98912,587.082416 73.98912,587.082416 73.96104C587.082416 73.96104,587.082416 73.93296,587.082416 73.93296C587.082416 73.76448,587.082416 73.76448,587.307056 73.42752C588.879536 71.32152,589.693856 68.85048,589.693856 66.63216C589.693856 64.69463999999999,589.076096 62.89752,587.896736 61.69008C587.728256 61.5216,587.672096 61.32504,587.672096 61.21272C587.672096 61.01616,587.784416 60.90384,587.9809759999999 60.8196">
        </path>
      </g>
    </g>
  </g>
</svg>
